<svg xmlns="http://www.w3.org/2000/svg" viewBox="0 0 80 88" fill="none">
  <defs>
    <linearGradient id="g" x1="40" y1="4" x2="40" y2="82" gradientUnits="userSpaceOnUse">
      <stop offset="0%" stop-color="#A599D4"/>
      <stop offset="100%" stop-color="#7B6DB6"/>
    </linearGradient>
  </defs>
  <path d="M10 4 L10 52 Q10 82 40 82 Q70 82 70 52 L70 4 L60 4 L56 14 L56 50 Q56 68 40 68 Q24 68 24 50 L24 14 L20 4 Z" fill="url(#g)"/>
  <rect x="26" y="30" width="4" height="12" rx="2" fill="#E0DAF0"/>
  <rect x="32" y="26" width="4" height="20" rx="2" fill="#E0DAF0"/>
  <rect x="38" y="22" width="4" height="28" rx="2" fill="#E0DAF0"/>
  <rect x="44" y="26" width="4" height="20" rx="2" fill="#E0DAF0"/>
  <rect x="50" y="30" width="4" height="12" rx="2" fill="#E0DAF0"/>
  <circle cx="34" cy="23" r="2" fill="#E0DAF0"/>
  <circle cx="46" cy="23" r="2" fill="#E0DAF0"/>
</svg>
